<svg xmlns="http://www.w3.org/2000/svg" width="24" height="24" viewBox="0 0 24 24"><defs><style>.a{fill:#0075cb;}.b{fill:#fff;}</style></defs><g transform="translate(-142.336 -408.114)"><rect class="a" width="24" height="24" rx="4" transform="translate(142.336 408.114)"/><g transform="translate(-34.895 109.862)"><path class="b" d="M193.679,305.822l-1.336,1.7-.9,1.144a1.155,1.155,0,0,1-.909.443h-.783a.326.326,0,0,1-.257-.527l.83-1.059h-5.293a.052.052,0,0,0-.052.052v4.688l-.781,1a.556.556,0,0,1-.994-.34h0v-5.356a1.817,1.817,0,0,1,1.816-1.817h8.4a.78.78,0,0,1,.219.021" transform="translate(0 0)"/><path class="b" d="M191.815,317.479l1.009-1.294a.949.949,0,0,1,.749-.366h1.067a.237.237,0,0,1,.187.382l-1,1.278h5.345a.052.052,0,0,0,.052-.052V312.52l.654-.844a.626.626,0,0,1,1.121.381v5.37a1.829,1.829,0,0,1-1.827,1.827h-8.393a1.1,1.1,0,0,1-.324-.042Z" transform="translate(-5.747 -4.503)"/></g></g></svg>