<svg xmlns="http://www.w3.org/2000/svg" width="48" height="57.586" viewBox="0 0 48 57.586">
    <defs>
        <style>
            .prefix__cls-2{fill:#e5e5e5}.prefix__cls-3{fill:#32419d}
        </style>
    </defs>
    <g id="prefix__idea" transform="translate(-40.017)">
        <path id="prefix__Path_30116" d="M147.4 135.185c-2.683 2.683-2.348 8.1-2.348 8.1H131.45s.287-5.414-2.348-8.1a13.846 13.846 0 1118.3 0z" data-name="Path 30116" transform="translate(-74.199 -97.529)" style="fill:rgba(50,65,157,.1)"/>
        <g id="prefix__Group_29619" data-name="Group 29619" transform="translate(56.82 48.723)">
            <path id="prefix__Path_30117" d="M194.732 408.094a1.288 1.288 0 01-1.294 1.294h-11.832a1.288 1.288 0 01-1.294-1.294 1.288 1.288 0 011.294-1.294h11.785a1.33 1.33 0 011.341 1.294z" class="prefix__cls-2" data-name="Path 30117" transform="translate(-180.312 -406.8)"/>
            <path id="prefix__Path_30118" d="M205.987 452.894a1.288 1.288 0 01-1.294 1.294h-8.288a1.288 1.288 0 01-1.294-1.294 1.288 1.288 0 011.294-1.294h8.288a1.288 1.288 0 011.294 1.294z" class="prefix__cls-2" data-name="Path 30118" transform="translate(-193.339 -446.234)"/>
        </g>
        <g id="prefix__Group_29620" data-name="Group 29620" transform="translate(40.017)">
            <path id="prefix__Path_30119" d="M141.433 128.975a14.795 14.795 0 10-19.69.144c2.348 2.348 2.108 7.33 2.108 7.378a1.145 1.145 0 00.24.671.946.946 0 00.671.287h13.558a.946.946 0 00.671-.287.9.9 0 00.24-.671c0-.048-.24-5.03 2.108-7.378.046-.049.094-.097.094-.144zm-1.341-1.2a.478.478 0 00-.192.24c-2.108 2.252-2.443 5.941-2.491 7.665h-11.738c-.048-1.773-.431-5.605-2.683-7.857a12.978 12.978 0 1121.511-9.773 12.883 12.883 0 01-4.408 9.727z" class="prefix__cls-3" data-name="Path 30119" transform="translate(-107.526 -90.84)"/>
            <path id="prefix__Path_30120" d="M233.622 135.2a.91.91 0 000 1.821 9.732 9.732 0 019.725 9.725.91.91 0 001.821 0 11.552 11.552 0 00-11.546-11.546z" class="prefix__cls-3" data-name="Path 30120" transform="translate(-209.633 -119.007)"/>
            <path id="prefix__Path_30121" d="M188.953 401.4a2.2 2.2 0 00-2.2-2.2h-11.837a2.2 2.2 0 100 4.408H186.7a2.209 2.209 0 002.253-2.208zm-2.252.383h-11.785a.383.383 0 010-.767H186.7a.378.378 0 01.383.383c.049.244-.142.388-.383.388z" class="prefix__cls-3" data-name="Path 30121" transform="translate(-156.819 -351.388)"/>
            <path id="prefix__Path_30122" d="M198 444h-8.288a2.2 2.2 0 000 4.408H198a2.2 2.2 0 002.2-2.2A2.229 2.229 0 00198 444zm0 2.587h-8.288a.383.383 0 010-.767H198a.378.378 0 01.383.383.353.353 0 01-.383.384z" class="prefix__cls-3" data-name="Path 30122" transform="translate(-169.846 -390.822)"/>
            <path id="prefix__Path_30123" d="M234.533 7.043V.91a.91.91 0 10-1.821 0v6.18a.91.91 0 00.91.91.951.951 0 00.911-.957z" class="prefix__cls-3" data-name="Path 30123" transform="translate(-209.633)"/>
            <path id="prefix__Path_30124" d="M331.044 36.885a.911.911 0 00-1.246.24l-3.4 5.126a.911.911 0 00.24 1.246.924.924 0 00.479.144 1 1 0 00.767-.383l3.4-5.126a.919.919 0 00-.24-1.247z" class="prefix__cls-3" data-name="Path 30124" transform="translate(-291.963 -32.333)"/>
            <path id="prefix__Path_30125" d="M119.041 41.508a.913.913 0 00.767-1.389l-3.308-5.175a.9.9 0 10-1.533.958l3.306 5.174a.921.921 0 00.768.432z" class="prefix__cls-3" data-name="Path 30125" transform="translate(-105.879 -30.393)"/>
            <path id="prefix__Path_30126" d="M40.483 115.993l5.414 2.922a.712.712 0 00.431.1.988.988 0 00.814-.479.9.9 0 00-.383-1.246l-5.414-2.922a.9.9 0 00-1.246.383.975.975 0 00.384 1.242z" class="prefix__cls-3" data-name="Path 30126" transform="translate(-40.017 -100.566)"/>
            <path id="prefix__Path_30127" d="M381.16 119.48a1.4 1.4 0 00.431-.1l5.409-2.918a.922.922 0 10-.862-1.629l-5.414 2.922a.914.914 0 00.431 1.725z" class="prefix__cls-3" data-name="Path 30127" transform="translate(-339.492 -100.988)"/>
        </g>
    </g>
</svg>
