<svg xmlns="http://www.w3.org/2000/svg" width="22.902" height="22.904" viewBox="0 0 22.902 22.904">
  <g id="Group_61853" data-name="Group 61853" transform="translate(-553.368 -513.869)">
    <path id="Path_58474" data-name="Path 58474" d="M566.206,515.256a11.453,11.453,0,0,1,8.944,18.6h0a3.3,3.3,0,0,0,1.624,4.131.091.091,0,0,1-.046.169H566.206a11.452,11.452,0,0,1,0-22.9Z" transform="translate(-1.387 -1.387)" fill="#1f8fff"/>
    <circle id="Ellipse_3703" data-name="Ellipse 3703" cx="8.943" cy="8.943" r="8.943" transform="translate(555.879 516.38)" fill="#1f8fff"/>
    <g id="Group_61836" data-name="Group 61836" transform="translate(560.468 519.074)">
      <path id="Path_58475" data-name="Path 58475" d="M1161.377,978.525h-2.419a.331.331,0,0,1-.3-.354h0a5.091,5.091,0,0,1,.174-1.468,3.411,3.411,0,0,1,.518-1.03,17.236,17.236,0,0,1,1.547-1.64,1.685,1.685,0,0,0,.641-1.127,1.145,1.145,0,0,0-.257-.8,1,1,0,0,0-.78-.284,1.163,1.163,0,0,0-.93.438,2.423,2.423,0,0,0-.431,1.195.312.312,0,0,1-.332.291l-2.481-.361a.348.348,0,0,1-.261-.4,5.167,5.167,0,0,1,1.194-2.85,4.16,4.16,0,0,1,3.289-1.216,4.329,4.329,0,0,1,2.786.848,3.707,3.707,0,0,1,1.441,3.056,3.348,3.348,0,0,1-.372,1.528,7.131,7.131,0,0,1-1.52,1.8,4.536,4.536,0,0,0-1.009,1.2,2.463,2.463,0,0,0-.2.856A.325.325,0,0,1,1161.377,978.525Z" transform="translate(-1156.063 -968.919)" fill="#fff" stroke="#1f8fff" stroke-width="0.5"/>
      <ellipse id="Ellipse_3704" data-name="Ellipse 3704" cx="1.389" cy="1.325" rx="1.389" ry="1.325" transform="translate(2.746 10.153)" fill="#fff" stroke="#1f8fff" stroke-width="0.5"/>
    </g>
  </g>
</svg>
