<svg xmlns="http://www.w3.org/2000/svg" width="16.5" height="15.269" viewBox="0 0 16.5 15.269">
  <g id="Group_17" data-name="Group 17" transform="translate(-11.75 -11.75)">
    <g id="Group_29550" data-name="Group 29550">
      <g id="Group_36" data-name="Group 36" transform="translate(12 12)">
        <g id="np_download_1119430_000000">
          <path id="Shape" d="M1.691,4.923H14.309A1.744,1.744,0,0,0,16,3.1V1.094a1.018,1.018,0,1,0-2.03,0V2.735H2.03V1.094A1.038,1.038,0,0,0,1.015,0,1.038,1.038,0,0,0,0,1.094V3.1A1.744,1.744,0,0,0,1.691,4.923Z" transform="translate(0 9.846)" fill="#666" stroke="#fff" stroke-width="0.5"/>
          <path id="Shape-2" data-name="Shape" d="M3.335,1V7.663L1.651,5.923a.918.918,0,0,0-1.36,0,.993.993,0,0,0,0,1.405l3.336,3.447a1.163,1.163,0,0,0,.324.234.679.679,0,0,0,.357.067,1.161,1.161,0,0,0,.357-.067.99.99,0,0,0,.324-.234L8.324,7.329a.993.993,0,0,0,0-1.405.918.918,0,0,0-1.36,0L5.278,7.663V1A.972.972,0,1,0,3.335,1Z" transform="translate(3.692)" fill="#666" stroke="#fff" stroke-width="0.5"/>
        </g>
      </g>
    </g>
  </g>
</svg>
