<svg xmlns="http://www.w3.org/2000/svg" width="35.002" height="35" viewBox="0 0 35.002 35"><defs><style>.a{fill:none;}.b{fill:#0075cb;}.c{fill:#f0f7fe;}.d,.e{stroke:none;}.e{fill:#0075cb;}</style></defs><g transform="translate(-107.55 -145.28)"><g transform="translate(107.55 145.28)"><g class="a" transform="translate(-107.55 -145.28)"><path class="d" d="M137.868,151.112v10.372a25.723,25.723,0,0,0-1.544,2.2c-.106.171-.211.342-.312.513a7.218,7.218,0,1,0-1.911,14.178,7.5,7.5,0,0,0,.83-.045,5.819,5.819,0,0,1-2.9.769H113.377a5.829,5.829,0,0,1-5.827-5.832V151.112a5.829,5.829,0,0,1,5.827-5.832h18.658A5.833,5.833,0,0,1,137.868,151.112Z"/><path class="e" d="M 113.3772583007812 147.2799987792969 C 111.2668914794922 147.2799987792969 109.5499877929688 148.9991607666016 109.5499877929688 151.1122894287109 L 109.5499877929688 173.264892578125 C 109.5499877929688 175.3780212402344 111.2668914794922 177.0971832275391 113.3772583007812 177.0971832275391 L 127.0496978759766 177.0971832275391 C 125.6464462280273 175.4373321533203 124.8819961547852 173.3547515869141 124.8819961547852 171.1532135009766 C 124.8819961547852 168.6902313232422 125.8405456542969 166.3757171630859 127.5810775756836 164.6360321044922 C 129.3215942382812 162.8963470458984 131.6374206542969 161.9382629394531 134.1019744873047 161.9382629394531 C 134.4152221679688 161.9382629394531 134.7282104492188 161.9542541503906 135.0397033691406 161.9860534667969 C 135.3086547851562 161.5821075439453 135.5853118896484 161.1886901855469 135.8678283691406 160.8084564208984 L 135.8678283691406 151.1122894287109 C 135.8678283691406 148.9991607666016 134.1486663818359 147.2799987792969 132.0355377197266 147.2799987792969 L 113.3772583007812 147.2799987792969 M 113.3772583007812 145.2799987792969 L 132.0355377197266 145.2799987792969 C 135.2533416748047 145.2799987792969 137.8678283691406 147.8894500732422 137.8678283691406 151.1122894287109 L 137.8678283691406 161.4846954345703 C 137.3147277832031 162.1885986328125 136.8019256591797 162.9226531982422 136.3242645263672 163.6818389892578 C 136.2187194824219 163.8527984619141 136.1130981445312 164.0237579345703 136.0125579833984 164.1946868896484 C 135.4041748046875 164.0287780761719 134.7606048583984 163.9382629394531 134.1019744873047 163.9382629394531 C 130.1098785400391 163.9382629394531 126.8819961547852 167.1661376953125 126.8819961547852 171.1532135009766 C 126.8819961547852 175.1453094482422 130.1098785400391 178.3731689453125 134.1019744873047 178.3731689453125 C 134.3835296630859 178.3731689453125 134.6600646972656 178.3580932617188 134.9315643310547 178.3279113769531 C 134.0768280029297 178.8156280517578 133.0913848876953 179.0971832275391 132.0355377197266 179.0971832275391 L 113.3772583007812 179.0971832275391 C 110.159423828125 179.0971832275391 107.5499877929688 176.4877319335938 107.5499877929688 173.264892578125 L 107.5499877929688 151.1122894287109 C 107.5499877929688 147.8894500732422 110.159423828125 145.2799987792969 113.3772583007812 145.2799987792969 Z"/></g><path class="b" d="M167.156,183.057c.09-.141.176-.282.266-.417v.935c-.141-.09-.287-.171-.432-.246Z" transform="translate(-137.105 -163.856)"/><rect class="b" width="19" height="2" rx="1" transform="translate(6.001 6.999)"/><rect class="b" width="7" height="2" rx="1" transform="translate(6.001 13.999)"/><rect class="b" width="3" height="2" rx="1" transform="translate(6.001 20.999)"/><path class="c" d="M20.694,1.645,23.283.084v21H7.813a12.906,12.906,0,0,1-2.082-2.3A3.165,3.165,0,0,1,5.2,17.2s-4.973.482-4.89,0C.916,13.61,2.165,5.822,5.731,2.374S15.1-.461,15.1-.461a5.755,5.755,0,0,1,2.56.545C18.535.5,19.6,1.645,20.694,1.645Z" transform="translate(11.719 13.915)"/></g><g transform="translate(118.553 160.086)"><g transform="translate(8.681 8.16)"><g transform="translate(0 0)"><path class="b" d="M215.341,305.527v-3.442a1.085,1.085,0,1,0-2.17,0v3.442a3.255,3.255,0,1,0,2.17,0Zm-1.085,4.154a1.085,1.085,0,1,1,1.085-1.085A1.086,1.086,0,0,1,214.255,309.681Z" transform="translate(-211 -301)"/></g></g><g transform="translate(0 0)"><path class="b" d="M102.937,211A11.95,11.95,0,0,0,91,222.937v2.17a1.085,1.085,0,0,0,1.085,1.085h2.17a1.085,1.085,0,1,0,0-2.17H93.17v-1.085a9.706,9.706,0,0,1,1.263-4.8l1.225,1.225a1.085,1.085,0,0,0,1.535-1.535l-1.469-1.469a9.751,9.751,0,0,1,6.128-3.128v1.025a1.085,1.085,0,0,0,2.17,0v-1.025a9.752,9.752,0,0,1,6.128,3.128l-1.469,1.47a1.085,1.085,0,0,0,1.535,1.535l1.225-1.225a9.707,9.707,0,0,1,1.263,4.8v1.085h-1.085a1.085,1.085,0,1,0,0,2.17h2.17a1.085,1.085,0,0,0,1.085-1.085v-2.17A11.95,11.95,0,0,0,102.937,211Z" transform="translate(-91 -211)"/></g></g></g></svg>