<svg xmlns="http://www.w3.org/2000/svg" width="24" height="24" viewBox="0 0 24 24">
  <g id="ic_undo_disable" transform="translate(-799 -53)">
    <rect id="Rectangle" width="24" height="24" rx="5" transform="translate(799 53)" fill="rgba(238,238,238,0)"/>
    <path id="undo_1_" data-name="undo (1)" d="M10.807,10.881a.672.672,0,0,1-.947-.954l2.25-2.209H7.65A5.372,5.372,0,0,0,2.277,13.09v1.343a.672.672,0,0,1-1.343,0V13.09A6.716,6.716,0,0,1,7.65,6.375H12.1L9.867,4.166a.672.672,0,0,1,.94-.954L14.212,6.57a.671.671,0,0,1,0,.954Z" transform="translate(803.361 55.893)" fill="#999" stroke="#999" stroke-width="1"/>
  </g>
</svg>

