<svg xmlns="http://www.w3.org/2000/svg" width="16.901" height="13.459" viewBox="0 0 16.901 13.459"><defs><style>.a{fill:#0075cb;}</style></defs><g transform="translate(-91 -211)"><g transform="translate(97.146 216.777)"><g transform="translate(0 0)"><path class="a" d="M214.073,304.2v-2.437a.768.768,0,1,0-1.536,0V304.2a2.3,2.3,0,1,0,1.536,0Zm-.768,2.941a.768.768,0,1,1,.768-.768A.769.769,0,0,1,213.3,307.146Z" transform="translate(-211 -301)"/></g></g><g transform="translate(91 211)"><g transform="translate(0 0)"><path class="a" d="M99.45,211A8.46,8.46,0,0,0,91,219.45v1.536a.768.768,0,0,0,.768.768H93.3a.768.768,0,1,0,0-1.536h-.768v-.768a6.871,6.871,0,0,1,.894-3.4l.867.867a.768.768,0,1,0,1.086-1.086l-1.04-1.04a6.9,6.9,0,0,1,4.338-2.215v.725a.768.768,0,0,0,1.536,0v-.725a6.9,6.9,0,0,1,4.338,2.215l-1.04,1.04a.768.768,0,1,0,1.086,1.086l.867-.867a6.872,6.872,0,0,1,.894,3.4v.768H105.6a.768.768,0,1,0,0,1.536h1.536a.768.768,0,0,0,.768-.768V219.45A8.46,8.46,0,0,0,99.45,211Z" transform="translate(-91 -211)"/></g></g></g></svg>