<svg xmlns="http://www.w3.org/2000/svg" xmlns:xlink="http://www.w3.org/1999/xlink" width="176.337" height="163" viewBox="0 0 176.337 163">
  <defs>
    <filter id="Rectangle_17028" x="0" y="13.307" width="115.184" height="65.388" filterUnits="userSpaceOnUse">
      <feOffset dy="3" input="SourceAlpha"/>
      <feGaussianBlur stdDeviation="6" result="blur"/>
      <feFlood flood-opacity="0.102"/>
      <feComposite operator="in" in2="blur"/>
      <feComposite in="SourceGraphic"/>
    </filter>
    <filter id="Rectangle_17028-2" x="47.347" y="64.735" width="125.796" height="67.837" filterUnits="userSpaceOnUse">
      <feOffset dy="3" input="SourceAlpha"/>
      <feGaussianBlur stdDeviation="6" result="blur-2"/>
      <feFlood flood-opacity="0.102"/>
      <feComposite operator="in" in2="blur-2"/>
      <feComposite in="SourceGraphic"/>
    </filter>
    <filter id="Path_45765" x="127.022" y="95.013" width="33.417" height="36.36" filterUnits="userSpaceOnUse">
      <feOffset dy="3" input="SourceAlpha"/>
      <feGaussianBlur stdDeviation="3" result="blur-3"/>
      <feFlood flood-opacity="0.161"/>
      <feComposite operator="in" in2="blur-3"/>
      <feComposite in="SourceGraphic"/>
    </filter>
  </defs>
  <g id="Group_62019" data-name="Group 62019" transform="translate(-118.663 -178.5)">
    <path id="Fill_1" data-name="Fill 1" d="M80,160A80,80,0,1,0,0,80a80,80,0,0,0,80,80" transform="translate(129 178.5)" fill="#f5f5f5"/>
    <g id="info_add-content" transform="translate(-979.123 -66.5)">
      <rect id="Rectangle_17050" data-name="Rectangle 17050" width="173" height="160" transform="translate(1101.123 248)" fill="none"/>
      <g id="Group_54672" data-name="Group 54672" transform="translate(1101.778 248.393)">
        <g id="Group_54666" data-name="Group 54666" transform="translate(0)">
          <g id="Group_54661" data-name="Group 54661" transform="translate(0)">
            <g id="robot" transform="translate(0 0)">
              <text id="Nancy_Allen" data-name="Nancy Allen" transform="translate(51.617 26.304)" fill="#999" font-size="8" font-family="Gilroy-Bold" font-weight="700"><tspan x="0" y="0">Nancy Allen</tspan></text>
              <text id="Experience" transform="translate(51.617 95.116)" fill="#999" font-size="8" font-family="Gilroy-SemiBold" font-weight="600"><tspan x="0" y="0">Experience</tspan></text>
              <g id="Group_54666-2" data-name="Group 54666">
                <g id="Group_54661-2" data-name="Group 54661" transform="translate(0)">
                  <g id="Rectangle_17022" data-name="Rectangle 17022" transform="translate(52.063 16.557)" fill="#fff" stroke="#707070" stroke-width="1.5">
                    <rect width="79.669" height="98.414" rx="5" stroke="none"/>
                    <rect x="0.75" y="0.75" width="78.169" height="96.914" rx="4.25" fill="none"/>
                  </g>
                  <path id="Path_46031" data-name="Path 46031" d="M0,2.578C3.152,1.8,27.763,0,27.763,0l3.051,24.85-2.769.3L7.728,19.287.491,6.575Z" transform="translate(104.292 13.473) rotate(7)" fill="#fff"/>
                  <path id="Path_46030" data-name="Path 46030" d="M116.408,102.881c1.628-.4,15.672-3.19,15.672-3.19l3.166,23.2-18.838,9.946Z" transform="translate(-64.434 -51.973)" fill="#fff"/>
                  <g id="Group_54662" data-name="Group 54662" transform="translate(89.891 56.123) rotate(94)">
                    <g id="Group_54605" data-name="Group 54605" transform="translate(0 0)">
                      <path id="Path_45986" data-name="Path 45986" d="M64.887,0,81.538,15.89c4.395,5.455,2.42,10.84.777,12.943L51.147,60.768a6.394,6.394,0,0,1-5.706,2.044l-26.363-.281c-6.107-.45-7.873-4.292-7.945-4.455L.385,33.284c-1.473-5.652,1.747-8.556,1.885-8.677.118-.122,1.779-1.693,5.829-2.655,4.6-1.092,8.233,4.1,8.385,4.32l7.553,16.991,17.217-.222.031,2.487-18.856.244L14.324,27.486h0c-.043-.019-2.778-3.795-5.65-3.114a11.013,11.013,0,0,0-4.715,2.06c-.128.119-2.241,2.113-1.229,6.046l10.682,24.6c.041.085,1.307,2.639,5.773,2.969l26.673.313a3.9,3.9,0,0,0,3.491-1.311L80.444,27.2c.049-.078,3.361-4.527-.735-9.626L63.168,1.8Z" transform="translate(0)" fill="#707070" stroke="#f4f4f8" stroke-width="1"/>
                    </g>
                    <g id="Group_54606" data-name="Group 54606" transform="translate(52.336 26.035)">
                      <rect id="Rectangle_17014" data-name="Rectangle 17014" width="54.56" height="18.568" rx="0.875" transform="translate(0 39.154) rotate(-45.859)" fill="#cdcee3"/>
                    </g>
                  </g>
                  <g id="Group_54664" data-name="Group 54664" transform="translate(98.778 38.449)">
                    <g id="Group_54611" data-name="Group 54611" transform="translate(0 0)">
                      <rect id="Rectangle_17017" data-name="Rectangle 17017" width="14.047" height="4.441" fill="#ebecf5"/>
                    </g>
                  </g>
                  <g id="Group_54665" data-name="Group 54665" transform="translate(98.778 27.834)">
                    <g id="Group_54611-2" data-name="Group 54611" transform="translate(0 0)">
                      <rect id="Rectangle_17017-2" data-name="Rectangle 17017" width="14.047" height="4.441" fill="#ebecf5"/>
                    </g>
                  </g>
                  <g id="bulb" transform="translate(112.825 0)">
                    <g id="Group_54602" data-name="Group 54602" transform="translate(10.007 34.986)">
                      <ellipse id="Ellipse_3483" data-name="Ellipse 3483" cx="2.905" cy="1.332" rx="2.905" ry="1.332" transform="translate(0.4 0.4)" fill="#ccc"/>
                      <path id="Path_45975" data-name="Path 45975" d="M614.053,369.076c-1.884,0-3.306-.745-3.306-1.732s1.421-1.732,3.306-1.732,3.306.745,3.306,1.732S615.937,369.076,614.053,369.076Zm0-2.663c-1.529,0-2.505.552-2.505.931s.976.931,2.505.931,2.505-.551,2.505-.931S615.582,366.413,614.053,366.413Z" transform="translate(-610.747 -365.612)" fill="#252527"/>
                    </g>
                    <path id="Path_45976" data-name="Path 45976" d="M576.152,192.841c-.054,0-.107,0-.161,0s-.107,0-.161,0a13.125,13.125,0,0,0-8.44,23.134c1,.831,3.255,1.592,3.255,3.312V226.9a1.643,1.643,0,0,0,.911,1.412,5.079,5.079,0,0,0,2.754.524h3.363a4.509,4.509,0,0,0,2.573-.524,1.476,1.476,0,0,0,.73-1.412v-7.612c0-1.72,2.436-2.481,3.436-3.312a13.048,13.048,0,0,0-8.258-23.134Z" transform="translate(-562.355 -192.441)" fill="#ffcf00"/>
                    <g id="Group_54603" data-name="Group 54603" transform="translate(0.4 0.4)">
                      <path id="Path_45977" data-name="Path 45977" d="M575.559,228.311a1.642,1.642,0,0,1-.911-1.412v-7.612c0-1.72-2.254-2.481-3.255-3.312a13.129,13.129,0,0,1,6.6-23,13.149,13.149,0,0,0-1.84-.132c-.054,0-.107,0-.161,0s-.107,0-.162,0a13.125,13.125,0,0,0-8.44,23.134c1,.831,3.255,1.592,3.255,3.312V226.9a1.642,1.642,0,0,0,.911,1.412,5.077,5.077,0,0,0,2.754.525H577.6A4.231,4.231,0,0,1,575.559,228.311Z" transform="translate(-562.755 -192.841)" fill="#fff"/>
                      <path id="Path_45978" data-name="Path 45978" d="M639.17,372.652l-.327,0c.112,0,.23,0,.354,0Z" transform="translate(-623.612 -336.657)" fill="#fff"/>
                    </g>
                    <path id="Path_45979" data-name="Path 45979" d="M592.152,192.841c-.054,0-.107,0-.161,0s-.107,0-.161,0a13.125,13.125,0,0,0-8.44,23.134c1,.831,3.255,1.592,3.255,3.312V226.9a1.643,1.643,0,0,0,.911,1.412,5.079,5.079,0,0,0,2.754.524h3.363a4.509,4.509,0,0,0,2.573-.524,1.476,1.476,0,0,0,.73-1.412v-7.612c0-1.72,2.436-2.481,3.436-3.312a13.048,13.048,0,0,0-8.258-23.134Z" transform="translate(-575.152 -192.441)" fill="#ffcf00"/>
                    <path id="Path_45980" data-name="Path 45980" d="M612.494,330.723h-10.33v6.456a1.643,1.643,0,0,0,.911,1.413,5.078,5.078,0,0,0,2.754.524h3.363a4.509,4.509,0,0,0,2.573-.524,1.476,1.476,0,0,0,.73-1.413Z" transform="translate(-593.875 -302.721)" fill="#ccc"/>
                    <path id="Path_45981" data-name="Path 45981" d="M602.164,344.007v3.8a1.642,1.642,0,0,0,.911,1.412,5.078,5.078,0,0,0,2.754.524h3.363a4.508,4.508,0,0,0,2.572-.524,1.512,1.512,0,0,0,.309-.24A15.541,15.541,0,0,1,602.164,344.007Z" transform="translate(-593.875 -313.346)" fill="#fff"/>
                    <path id="Path_45982" data-name="Path 45982" d="M572.251,227.64a4.8,4.8,0,0,1-2.5-.582,2.021,2.021,0,0,1-1.111-1.759v-7.611c0-1.042-1.1-1.716-2.076-2.31a9.046,9.046,0,0,1-1.035-.695,13.526,13.526,0,0,1,8.7-23.842l.1,0,.063,0,.053,0,.1,0a13.448,13.448,0,0,1,8.514,23.842,8.61,8.61,0,0,1-1.128.731c-1.014.589-2.163,1.258-2.163,2.273V225.3a1.868,1.868,0,0,1-.93,1.759,4.588,4.588,0,0,1-2.58.58l-.193,0H572.71l-.194,0Zm1.979-36a12.725,12.725,0,0,0-8.184,22.426,8.5,8.5,0,0,0,.94.627c1.1.669,2.459,1.5,2.459,2.993V225.3a1.24,1.24,0,0,0,.711,1.066,4.346,4.346,0,0,0,2.35.473l.2,0h3.363l.2,0a3.839,3.839,0,0,0,2.169-.473,1.075,1.075,0,0,0,.53-1.066v-7.611c0-1.476,1.42-2.3,2.562-2.965a8.1,8.1,0,0,0,1.019-.655,12.647,12.647,0,0,0-8-22.426l-.076,0-.081,0-.091,0Z" transform="translate(-560.755 -190.841)" fill="#252527"/>
                    <g id="Group_54604" data-name="Group 54604" transform="translate(8.117 27.802)">
                      <rect id="Rectangle_17008" data-name="Rectangle 17008" width="10.33" height="0.4" transform="translate(0.172 6.779)" fill="#252527"/>
                      <rect id="Rectangle_17009" data-name="Rectangle 17009" width="10.33" height="0.4" transform="translate(0.172)" fill="#252527"/>
                      <rect id="Rectangle_17010" data-name="Rectangle 17010" width="10.456" height="0.4" transform="translate(0 6.62) rotate(-8.878)" fill="#252527"/>
                      <rect id="Rectangle_17011" data-name="Rectangle 17011" width="10.456" height="0.4" transform="translate(0 5.006) rotate(-8.878)" fill="#252527"/>
                      <rect id="Rectangle_17012" data-name="Rectangle 17012" width="10.456" height="0.4" transform="translate(0 3.392) rotate(-8.878)" fill="#252527"/>
                      <rect id="Rectangle_17013" data-name="Rectangle 17013" width="10.456" height="0.4" transform="translate(0 1.778) rotate(-8.878)" fill="#252527"/>
                    </g>
                    <path id="Path_45983" data-name="Path 45983" d="M669.406,252.068a.4.4,0,0,1-.39-.491,8.8,8.8,0,0,0,.069-3.649.4.4,0,1,1,.786-.152,9.606,9.606,0,0,1-.075,3.983A.4.4,0,0,1,669.406,252.068Z" transform="translate(-647.336 -236.119)" fill="#252527"/>
                    <path id="Path_45984" data-name="Path 45984" d="M633.478,217a.4.4,0,0,1-.369-.244,8.7,8.7,0,0,0-8.022-5.313.4.4,0,1,1,0-.8,9.5,9.5,0,0,1,8.759,5.8.4.4,0,0,1-.368.557Z" transform="translate(-611.889 -206.675)" fill="#252527"/>
                    <path id="Path_45985" data-name="Path 45985" d="M608.69,284.745h-.8v-7.2a13.061,13.061,0,0,1-1.965.176,12.315,12.315,0,0,1-1.754-.15v7.174h-.8v-7.332c-1.391-.335-2.83-1.035-2.83-2.5a1.591,1.591,0,0,1,1.61-1.679,1.916,1.916,0,0,1,1.392.622,2.534,2.534,0,0,1,.629,1.788v1.108a12.785,12.785,0,0,0,1.754.164,12.008,12.008,0,0,0,1.965-.182v-1.09a2.558,2.558,0,0,1,.617-1.785,1.873,1.873,0,0,1,1.373-.625,1.58,1.58,0,0,1,1.586,1.679c0,1.414-1.388,2.115-2.775,2.462Zm-6.541-10.707a.791.791,0,0,0-.809.879c0,.9.977,1.4,2.029,1.671v-.941a1.787,1.787,0,0,0-.415-1.243A1.114,1.114,0,0,0,602.15,274.039Zm7.729,0a1.072,1.072,0,0,0-.782.364,1.814,1.814,0,0,0-.407,1.245v.912c1.063-.292,1.974-.8,1.974-1.642A.781.781,0,0,0,609.879,274.039Z" transform="translate(-592.576 -256.744)" fill="#252527"/>
                  </g>
                </g>
              </g>
              <g id="Group_54676" data-name="Group 54676" transform="translate(14.008 24.914)">
                <g id="Group_54678" data-name="Group 54678">
                  <g transform="matrix(1, 0, 0, 1, -18, -28.31)" filter="url(#Rectangle_17028)">
                    <rect id="Rectangle_17028-3" data-name="Rectangle 17028" width="79.184" height="29.388" rx="4" transform="translate(18 28.31)" fill="#fff"/>
                  </g>
                  <path id="Icon_material-playlist-add" data-name="Icon material-playlist-add" d="M14.213,13.187H3V15.28H14.213Zm0-4.187H3v2.093H14.213Zm3.738,8.373V13.187H16.082v4.187H12.344v2.093h3.738v4.187h1.869V19.467h3.738V17.373ZM3,19.467h7.475V17.373H3Z" transform="translate(5.163 -0.339)" fill="#5563b5" stroke="#fff" stroke-linejoin="round" stroke-width="1"/>
                  <g id="Group_54675" data-name="Group 54675" transform="translate(31.837 17.959)">
                    <rect id="Rectangle_17030" data-name="Rectangle 17030" width="38.367" height="4.898" rx="2.449" fill="#ebecf5"/>
                  </g>
                  <text id="Include" transform="translate(31.837 12.082)" fill="#666" font-size="8" font-family="AvenirNext-DemiBold, Avenir Next" font-weight="300"><tspan x="0" y="0">Include</tspan></text>
                </g>
              </g>
              <g id="Group_54677" data-name="Group 54677" transform="translate(61.355 76.342)">
                <g transform="matrix(1, 0, 0, 1, -65.35, -79.74)" filter="url(#Rectangle_17028-2)">
                  <rect id="Rectangle_17028-4" data-name="Rectangle 17028" width="89.796" height="31.837" rx="4" transform="translate(65.35 79.74)" fill="#fff"/>
                </g>
                <g id="Group_54675-2" data-name="Group 54675" transform="translate(29.388 4.898)">
                  <rect id="Rectangle_17030-2" data-name="Rectangle 17030" width="49.796" height="4.35" rx="2.175" transform="translate(0 15.061)" fill="#ebecf5"/>
                  <rect id="Rectangle_18109" data-name="Rectangle 18109" width="27.796" height="7.347" rx="3.673" transform="translate(0 1.826)" fill="#ebecf5"/>
                </g>
                <g id="Icon_feather-plus-square" data-name="Icon feather-plus-square" transform="translate(6.186 7.347)">
                  <path id="Path_46363" data-name="Path 46363" d="M6.133,4.5H17.561a1.633,1.633,0,0,1,1.633,1.633V17.561a1.633,1.633,0,0,1-1.633,1.633H6.133A1.633,1.633,0,0,1,4.5,17.561V6.133A1.633,1.633,0,0,1,6.133,4.5Z" transform="translate(-4.5 -4.5)" fill="none" stroke="#5563b5" stroke-linecap="round" stroke-linejoin="round" stroke-width="1"/>
                  <g id="Group_54700" data-name="Group 54700" transform="translate(4.082 4.082)">
                    <path id="Path_46364" data-name="Path 46364" d="M18,12v6.531" transform="translate(-14.735 -12)" fill="none" stroke="#5563b5" stroke-linecap="round" stroke-linejoin="round" stroke-width="1"/>
                    <path id="Path_46365" data-name="Path 46365" d="M12,18h6.531" transform="translate(-12 -14.735)" fill="none" stroke="#5563b5" stroke-linecap="round" stroke-linejoin="round" stroke-width="1"/>
                  </g>
                </g>
              </g>
            </g>
          </g>
        </g>
      </g>
      <g transform="matrix(1, 0, 0, 1, 1097.79, 245)" filter="url(#Path_45765)">
        <g id="Path_45765-2" data-name="Path 45765" transform="translate(-34.57 -476.43)" fill="#707386" stroke-linecap="round" stroke-linejoin="round">
          <path d="M 172.3378753662109 596.1072998046875 L 172.2352600097656 594.3482666015625 L 171.3391876220703 578.9879760742188 L 171.246826171875 577.4046020507812 L 172.5292358398438 578.3378295898438 L 184.9458923339844 587.3738403320312 L 186.3790130615234 588.4168090820312 L 184.632568359375 588.7192993164062 L 178.4803619384766 589.7848510742188 L 177.8890228271484 590.1073608398438 L 173.5345153808594 594.8139038085938 L 172.3378753662109 596.1072998046875 Z" stroke="none"/>
          <path d="M 172.0879211425781 578.9442749023438 L 172.9839935302734 594.3045654296875 L 177.4219970703125 589.5077514648438 L 178.2301635742188 589.0670166015625 L 184.5045776367188 587.9802856445312 L 172.0879211425781 578.9442749023438 M 172.0877838134766 577.4442749023438 C 172.3990173339844 577.4442749023438 172.7088623046875 577.541015625 172.9705352783203 577.7314453125 L 185.3871917724609 586.7674560546875 C 185.8744049072266 587.1220092773438 186.1021423339844 587.733642578125 185.9654846191406 588.3204956054688 C 185.8288269042969 588.9073486328125 185.3542785644531 589.35546875 184.7605743408203 589.4583129882812 L 178.7305450439453 590.502685546875 L 178.3560485839844 590.7069091796875 L 174.0850219726562 595.3232421875 C 173.6766052246094 595.7647094726562 173.0440216064453 595.91943359375 172.4779052734375 595.7166137695312 C 171.9117736816406 595.5137329101562 171.5215606689453 594.9923095703125 171.4865417480469 594.3919067382812 L 170.5904693603516 579.0316162109375 C 170.5566864013672 578.4525756835938 170.8597717285156 577.9059448242188 171.3688049316406 577.6278686523438 C 171.5937957763672 577.5049438476562 171.8412322998047 577.4442749023438 172.0877838134766 577.4442749023438 Z" stroke="none" fill="#fff"/>
        </g>
      </g>
    </g>
  </g>
</svg>
