<svg xmlns="http://www.w3.org/2000/svg" width="20.788" height="16.048" viewBox="0 0 20.788 16.048"><defs><style>.a{fill:none;stroke:#ff9e2d;stroke-linecap:round;stroke-width:1.5px;}.b{fill:#ff9e2d;}.c{fill:#fff;}.d,.e{stroke:none;}.e{fill:#fff;}</style></defs><g transform="translate(-169.462 -475.98)"><line class="a" x2="4" transform="translate(185.5 484)"/><g transform="translate(-105.761 233.727)"><g transform="translate(275.213 242.31)"><rect class="b" width="16.048" height="16.048" rx="8.024" transform="translate(0.01 -0.057)"/></g><g class="c" transform="translate(281.869 246.23)"><path class="d" d="M 4.651200294494629 5.57289981842041 L 0.8208000659942627 5.57289981842041 C 0.3130700588226318 5.57289981842041 -0.09999994188547134 5.159830093383789 -0.09999994188547134 4.652100086212158 L -0.09999994188547134 0.8207999467849731 C -0.09999994188547134 0.3130699694156647 0.3130700588226318 -0.1000000461935997 0.8208000659942627 -0.1000000461935997 C 1.328530073165894 -0.1000000461935997 1.741600036621094 0.3130699694156647 1.741600036621094 0.8207999467849731 L 1.741600036621094 3.731299877166748 L 4.651200294494629 3.731299877166748 C 5.158929824829102 3.731299877166748 5.572000026702881 4.144370079040527 5.572000026702881 4.652100086212158 C 5.572000026702881 5.159830093383789 5.158929824829102 5.57289981842041 4.651200294494629 5.57289981842041 Z"/><path class="e" d="M 4.651200294494629 5.472899913787842 C 5.104800224304199 5.472899913787842 5.472000122070312 5.105700016021729 5.472000122070312 4.652100086212158 C 5.472000122070312 4.198500156402588 5.104800224304199 3.831300020217896 4.651200294494629 3.831300020217896 L 1.641600012779236 3.831300020217896 L 1.641600012779236 0.8207999467849731 C 1.641600012779236 0.3671999573707581 1.273500084877014 -4.310608048285758e-08 0.8208000659942627 -4.310608048285758e-08 C 0.3672000467777252 -4.310608048285758e-08 6.103515914901436e-08 0.3671999573707581 6.103515914901436e-08 0.8207999467849731 L 6.103515914901436e-08 4.651199817657471 C 6.103515914901436e-08 4.651340007781982 1.006103502732003e-05 4.651509761810303 1.006103502732003e-05 4.651649951934814 C 1.006103502732003e-05 4.651790142059326 6.103515914901436e-08 4.651959896087646 6.103515914901436e-08 4.652100086212158 C 6.103515914901436e-08 5.105700016021729 0.3672000467777252 5.472899913787842 0.8208000659942627 5.472899913787842 L 4.651200294494629 5.472899913787842 M 4.651200294494629 5.672899723052979 L 0.8208000659942627 5.672899723052979 C 0.2579300701618195 5.672899723052979 -0.1999999433755875 5.214970111846924 -0.1999999433755875 4.652100086212158 L -0.1999999433755875 4.648880004882812 L -0.1999999433755875 0.8207999467849731 C -0.1999999433755875 0.2579299509525299 0.2579300701618195 -0.2000000476837158 0.8208000659942627 -0.2000000476837158 C 1.383670091629028 -0.2000000476837158 1.841600060462952 0.2579299509525299 1.841600060462952 0.8207999467849731 L 1.841600060462952 3.63129997253418 L 4.651200294494629 3.63129997253418 C 5.214069843292236 3.63129997253418 5.671999931335449 4.089230060577393 5.671999931335449 4.652100086212158 C 5.671999931335449 5.214970111846924 5.214069843292236 5.672899723052979 4.651200294494629 5.672899723052979 Z"/></g></g></g></svg>